#tb 0: 1/25
#media_type 0: video
#codec_id 0: rawvideo
#dimensions 0: 832x480
#sar 0: 0/1
0,          0,          0,        1,   599040, 0x87159328
0,          1,          1,        1,   599040, 0x825672ff
0,          2,          2,        1,   599040, 0x2f4224ff
0,          3,          3,        1,   599040, 0x4be431ff
0,          4,          4,        1,   599040, 0xa0118b14
0,          5,          5,        1,   599040, 0x488aac33
0,          6,          6,        1,   599040, 0x1edd0d4e
0,          7,          7,        1,   599040, 0x7f4562a2
0,          8,          8,        1,   599040, 0xe177a7d4
0,          9,          9,        1,   599040, 0x32d2fd58
0,         10,         10,        1,   599040, 0x81d50c36
0,         11,         11,        1,   599040, 0xdf32810d
0,         12,         12,        1,   599040, 0xc4f50543
0,         13,         13,        1,   599040, 0x777bfdce
0,         14,         14,        1,   599040, 0x01db8731
0,         15,         15,        1,   599040, 0x74ae2b2c
0,         16,         16,        1,   599040, 0x424e130a
0,         17,         17,        1,   599040, 0x7002f7c8
0,         18,         18,        1,   599040, 0xde098c5b
0,         19,         19,        1,   599040, 0x072ca0e3
0,         20,         20,        1,   599040, 0x6c50e3ba
0,         21,         21,        1,   599040, 0xa398c530
0,         22,         22,        1,   599040, 0xcd8a780a
0,         23,         23,        1,   599040, 0x7c849e63
0,         24,         24,        1,   599040, 0xb70e2a1f
0,         25,         25,        1,   599040, 0xc00d893c
0,         26,         26,        1,   599040, 0x5da32c94
0,         27,         27,        1,   599040, 0xc3177b8c
0,         28,         28,        1,   599040, 0x06668480
0,         29,         29,        1,   599040, 0xbceeac78
0,         30,         30,        1,   599040, 0x162d5cd1
0,         31,         31,        1,   599040, 0x071b71c4
0,         32,         32,        1,   599040, 0xfe61e0b2
0,         33,         33,        1,   599040, 0xe78c121f
0,         34,         34,        1,   599040, 0x3b47c051
0,         35,         35,        1,   599040, 0x10c1eedd
0,         36,         36,        1,   599040, 0x09cf2d2c
0,         37,         37,        1,   599040, 0xc4272450
0,         38,         38,        1,   599040, 0x3a9e0db7
0,         39,         39,        1,   599040, 0xe62595ad
0,         40,         40,        1,   599040, 0xc03669a5
0,         41,         41,        1,   599040, 0x4fbb058e
0,         42,         42,        1,   599040, 0xaaee8771
0,         43,         43,        1,   599040, 0xcc4f3a71
0,         44,         44,        1,   599040, 0xc5717c31
0,         45,         45,        1,   599040, 0xe2bc02fc
0,         46,         46,        1,   599040, 0x380e06eb
0,         47,         47,        1,   599040, 0x15d4ba04
0,         48,         48,        1,   599040, 0xb9204342
0,         49,         49,        1,   599040, 0xb9d9a246
0,         50,         50,        1,   599040, 0xb5611280
0,         51,         51,        1,   599040, 0xc80e3909
0,         52,         52,        1,   599040, 0xef93ecbd
0,         53,         53,        1,   599040, 0xdd6b435e
0,         54,         54,        1,   599040, 0x1622f253
0,         55,         55,        1,   599040, 0x41cd55a6
0,         56,         56,        1,   599040, 0x7ed864e7
0,         57,         57,        1,   599040, 0x1604c563
0,         58,         58,        1,   599040, 0x1d5a3dc9
0,         59,         59,        1,   599040, 0xa904a8a5
0,         60,         60,        1,   599040, 0x19c43226
0,         61,         61,        1,   599040, 0x60d803e0
0,         62,         62,        1,   599040, 0xe862b0e0
0,         63,         63,        1,   599040, 0x37c76c51
0,         64,         64,        1,   599040, 0x8528cc3c
0,         65,         65,        1,   599040, 0x03ece1f9
0,         66,         66,        1,   599040, 0x8f0ef28e
0,         67,         67,        1,   599040, 0x92164007
0,         68,         68,        1,   599040, 0x9d3c2ecf
0,         69,         69,        1,   599040, 0xacf536d4
0,         70,         70,        1,   599040, 0xbdf6165f
0,         71,         71,        1,   599040, 0xbc19f80a
0,         72,         72,        1,   599040, 0x128a6480
0,         73,         73,        1,   599040, 0xb487c333
0,         74,         74,        1,   599040, 0x8dc350fa
0,         75,         75,        1,   599040, 0x0043fe96
0,         76,         76,        1,   599040, 0x47b502a5
0,         77,         77,        1,   599040, 0xf62b761f
0,         78,         78,        1,   599040, 0x608f63c3
0,         79,         79,        1,   599040, 0xe285d93d
0,         80,         80,        1,   599040, 0x1c3404cf
